<svg width="138" height="28" overflow="visible" style="display: block;" viewBox="0 0 2150 436" fill="none" xmlns="http://www.w3.org/2000/svg">
<g id="Logo Light">
<g id="g54">
<path id="path56" d="M240.572 370.461C240.572 358.256 230.657 348.36 218.425 348.36C146.377 348.36 87.7612 289.867 87.7612 217.969C87.7612 146.071 146.377 87.5787 218.425 87.5787C290.472 87.5787 349.086 146.071 349.086 217.969C349.086 230.176 359.002 240.072 371.234 240.072C383.467 240.072 393.382 230.176 393.382 217.969C393.382 121.697 314.896 43.3747 218.425 43.3747C121.951 43.3747 43.4664 121.697 43.4664 217.969C43.4664 314.241 121.951 392.563 218.425 392.563C230.657 392.563 240.572 382.668 240.572 370.461ZM305.311 218.135C305.311 170.233 266.259 131.263 218.258 131.263C170.256 131.263 131.205 170.233 131.205 218.135C131.205 266.035 170.256 305.008 218.258 305.008C266.259 305.008 305.311 266.035 305.311 218.135ZM0 217.969C0 97.5881 97.7914 6.6674e-05 218.425 6.6674e-05C339.055 6.6674e-05 436.846 97.5881 436.846 217.969C436.846 338.349 339.055 435.937 218.425 435.937C97.7914 435.937 0 338.349 0 217.969Z" fill="var(--fill-0, white)"/>
</g>
<g id="audos docs">
<path d="M599.801 297.571C554.163 297.571 516.881 260.611 516.881 214.652C516.881 168.692 554.163 131.732 599.801 131.732C645.439 131.732 682.399 168.692 682.399 214.652V295H640.618V277.966C635.797 288.572 618.12 297.571 599.801 297.571ZM600.122 256.754C623.905 256.754 640.939 238.435 640.939 214.652C640.939 190.868 623.905 172.549 600.122 172.549C576.339 172.549 558.662 190.868 558.662 214.652C558.662 238.435 576.339 256.754 600.122 256.754Z" fill="var(--fill-0, white)"/>
<path d="M846.335 134.303V218.83C846.335 272.824 816.767 297.571 775.628 297.571C734.49 297.571 704.922 272.824 704.922 218.83V134.303H746.703V218.83C746.703 244.541 755.059 256.754 775.628 256.754C796.197 256.754 804.554 244.541 804.554 218.83V134.303H846.335Z" fill="var(--fill-0, white)"/>
<path d="M1029.53 214.652C1029.53 260.611 992.569 297.571 946.931 297.571C901.293 297.571 864.012 260.611 864.012 214.652C864.012 168.692 901.293 131.732 946.931 131.732C963.322 131.732 976.178 135.91 987.427 143.945V70.0242H1029.53V214.652ZM946.61 172.549C922.827 172.549 905.793 190.868 905.793 214.652C905.793 238.435 922.827 256.754 946.61 256.754C970.393 256.754 988.07 238.435 988.07 214.652C988.07 190.868 970.393 172.549 946.61 172.549Z" fill="var(--fill-0, white)"/>
<path d="M1130.23 131.732C1176.19 131.732 1213.15 168.692 1213.15 214.652C1213.15 260.611 1176.19 297.571 1130.23 297.571C1084.27 297.571 1047.31 260.611 1047.31 214.652C1047.31 168.692 1084.27 131.732 1130.23 131.732ZM1130.55 172.549C1106.76 172.549 1089.09 190.868 1089.09 214.652C1089.09 238.435 1106.76 256.754 1130.55 256.754C1154.33 256.754 1171.36 238.435 1171.36 214.652C1171.36 190.868 1154.33 172.549 1130.55 172.549Z" fill="var(--fill-0, white)"/>
<path d="M1296.84 297.571C1260.84 297.571 1227.74 278.93 1227.74 242.934H1267.59C1267.59 253.219 1280.45 260.289 1297.8 260.289C1315.16 260.289 1324.16 253.219 1324.16 244.863C1324.16 218.187 1229.35 243.898 1229.35 180.262C1229.35 151.98 1258.59 131.732 1295.87 131.732C1333.16 131.732 1361.44 150.373 1361.44 184.44H1321.59C1321.59 175.12 1309.05 168.692 1295.23 168.692C1281.41 168.692 1271.13 175.12 1271.13 183.476C1271.13 206.617 1365.3 185.083 1365.94 245.827C1366.26 281.823 1336.05 297.571 1296.84 297.571Z" fill="var(--fill-0, white)"/>
<path d="M1634.34 214.652C1634.34 260.611 1597.38 297.571 1551.74 297.571C1506.1 297.571 1468.82 260.611 1468.82 214.652C1468.82 168.692 1506.1 131.732 1551.74 131.732C1568.13 131.732 1580.99 135.91 1592.24 143.945V70.0242H1634.34V214.652ZM1551.42 172.549C1527.64 172.549 1510.6 190.868 1510.6 214.652C1510.6 238.435 1527.64 256.754 1551.42 256.754C1575.2 256.754 1592.88 238.435 1592.88 214.652C1592.88 190.868 1575.2 172.549 1551.42 172.549Z" fill="var(--fill-0, white)"/>
<path d="M1735.04 131.732C1781 131.732 1817.96 168.692 1817.96 214.652C1817.96 260.611 1781 297.571 1735.04 297.571C1689.08 297.571 1652.12 260.611 1652.12 214.652C1652.12 168.692 1689.08 131.732 1735.04 131.732ZM1735.36 172.549C1711.58 172.549 1693.9 190.868 1693.9 214.652C1693.9 238.435 1711.58 256.754 1735.36 256.754C1759.14 256.754 1776.18 238.435 1776.18 214.652C1776.18 190.868 1759.14 172.549 1735.36 172.549Z" fill="var(--fill-0, white)"/>
<path d="M1917.08 297.571C1871.12 297.571 1834.16 260.611 1834.16 214.652C1834.16 168.692 1871.12 131.732 1917.08 131.732C1955.32 131.732 1987.14 157.122 1996.78 191.833H1952.43C1945.36 180.262 1932.83 172.549 1917.4 172.549C1893.62 172.549 1875.94 190.868 1875.94 214.652C1875.94 238.435 1893.62 256.754 1917.4 256.754C1932.18 256.754 1943.75 249.683 1951.14 239.077H1996.46C1986.18 273.145 1954.68 297.571 1917.08 297.571Z" fill="var(--fill-0, white)"/>
<path d="M2080.24 297.571C2044.24 297.571 2011.14 278.93 2011.14 242.934H2050.99C2050.99 253.219 2063.85 260.289 2081.2 260.289C2098.56 260.289 2107.56 253.219 2107.56 244.863C2107.56 218.187 2012.74 243.898 2012.74 180.262C2012.74 151.98 2041.99 131.732 2079.27 131.732C2116.55 131.732 2144.84 150.373 2144.84 184.44H2104.98C2104.98 175.12 2092.45 168.692 2078.63 168.692C2064.81 168.692 2054.53 175.12 2054.53 183.476C2054.53 206.617 2148.69 185.083 2149.34 245.827C2149.66 281.823 2119.45 297.571 2080.24 297.571Z" fill="var(--fill-0, white)"/>
</g>
</g>
</svg>
